<?xml version="1.0" encoding="UTF-8"?>
<svg version="1.1" xmlns="http://www.w3.org/2000/svg" width="500" height="500">
<path d="M0 0 C165 0 330 0 500 0 C500 165 500 330 500 500 C335 500 170 500 0 500 C0 335 0 170 0 0 Z " fill="#1F263B" transform="translate(0,0)"/>
<path d="M0 0 C3.70806596 -0.11674705 7.4156554 -0.18743274 11.125 -0.25 C12.17171875 -0.28351563 13.2184375 -0.31703125 14.296875 -0.3515625 C21.79958917 -0.44653357 25.46158086 0.7373892 31.0546875 5.89453125 C31.95574219 6.84392578 31.95574219 6.84392578 32.875 7.8125 C35.47314028 10.48459115 38.10460819 13.01574359 40.9375 15.4375 C43.92801716 18.00665271 46.73116684 20.69317256 49.5 23.5 C53.5007001 27.54873595 57.67320191 31.30597475 62 35 C66.48588829 38.8688702 70.86403128 42.75224835 75 47 C75.928125 47.928125 76.85625 48.85625 77.8125 49.8125 C78.534375 50.534375 79.25625 51.25625 80 52 C84.00905464 50.36561321 86.8465398 47.55997302 89.9375 44.625 C91.10534368 43.53111645 92.27331592 42.43737016 93.44140625 41.34375 C94.03453613 40.78558594 94.62766602 40.22742188 95.23876953 39.65234375 C97.93343433 37.12427453 100.65526785 34.62602857 103.375 32.125 C107.45975737 28.35855959 111.53351473 24.58065821 115.58764648 20.78125 C116.8632119 19.59313239 118.14664185 18.41340288 119.43774414 17.2421875 C122.49801785 14.44956599 125.3329429 11.68121769 127.92578125 8.4453125 C131.79706996 3.85702076 134.96546153 0.49588333 141.1015625 -0.50683594 C148.75701016 -1.02276516 156.36410452 -0.66689043 164 0 C162.92685547 1.07121094 162.92685547 1.07121094 161.83203125 2.1640625 C160.00990944 3.98554339 158.19636133 5.81444996 156.38671875 7.6484375 C155.49597656 8.54820312 154.60523438 9.44796875 153.6875 10.375 C152.80449219 11.26960938 151.92148437 12.16421875 151.01171875 13.0859375 C148.15081235 15.91319765 145.12504406 18.52912394 142.08569336 21.16162109 C137.91311883 24.83942587 133.92305331 28.71794976 129.91210938 32.5703125 C125.81378955 36.45754297 121.64139493 39.78364494 117 43 C115.29319053 44.62553283 113.62339805 46.29115995 112 48 C108.70722806 51.38685114 105.29142422 54.61848768 101.8125 57.8125 C100.95269531 58.60269531 100.09289062 59.39289063 99.20703125 60.20703125 C97 62 97 62 95 62 C94.73960937 62.598125 94.47921875 63.19625 94.2109375 63.8125 C92.91891371 66.14647847 91.69131187 67.33973195 89.625 69 C87.47729162 70.74751428 85.67277567 72.3646214 83.8125 74.4375 C82 76 82 76 80.24609375 75.9375 C76.91947733 74.54899923 74.71531426 72.10869728 72.25 69.5625 C71.74339844 69.05912109 71.23679687 68.55574219 70.71484375 68.03710938 C67 64.26719382 67 64.26719382 67 62 C66.071875 61.62875 66.071875 61.62875 65.125 61.25 C63 60 63 60 62.0625 58 C61.17386518 55.78098509 61.17386518 55.78098509 58.796875 55.23046875 C55.16955732 53.63465162 52.86074142 51.14606619 50.1875 48.3125 C46.30192328 44.25054196 42.29796558 40.45731498 38.04174805 36.78344727 C34.71740723 33.87966756 31.52018416 30.84382767 28.3125 27.8125 C26.91958794 26.50226697 25.52635376 25.19237631 24.1328125 23.8828125 C23.44348633 23.23473633 22.75416016 22.58666016 22.04394531 21.91894531 C18.93383321 18.99903595 15.81494462 16.08883185 12.6875 13.1875 C12.15487549 12.69032471 11.62225098 12.19314941 11.07348633 11.6809082 C8.79180284 9.56865114 6.59524474 7.73016316 4 6 C4 5.34 4 4.68 4 4 C2.68 3.34 1.36 2.68 0 2 C0 1.34 0 0.68 0 0 Z " fill="#60697B" transform="translate(171,291)"/>
<path d="M0 0 C6.01157499 4.12559068 11.02138443 8.85130393 16.07885742 14.06518555 C19.54566709 17.62213978 23.15261275 20.92627526 26.91162109 24.17211914 C30.54837177 27.35523257 34.04986196 30.68127229 37.5625 34 C38.27857422 34.67289063 38.99464844 35.34578125 39.73242188 36.0390625 C43.13434629 39.24597214 46.49883074 42.47912623 49.79296875 45.796875 C52.03569859 48.05527038 54.30497659 50.20874192 56.75 52.25 C60.66859091 55.62181079 64.2906819 59.2567569 67.91503906 62.93676758 C71.2476105 66.30136058 74.69814044 69.44485786 78.34375 72.46484375 C80.16836636 74.15605656 81.53137896 75.99759169 83 78 C60.20515253 79.48203559 60.20515253 79.48203559 54.1875 74.625 C52.74093464 73.13083285 51.34519281 71.58604638 50 70 C48.29941686 68.30468999 46.59086066 66.61734559 44.875 64.9375 C44.04742187 64.091875 43.21984375 63.24625 42.3671875 62.375 C39.70506255 59.70408916 36.92593865 57.23249783 34.06640625 54.77734375 C28.07431571 49.62346626 22.25471537 44.32791755 16.71875 38.6875 C14.20487898 36.21933572 11.53490373 33.94374971 8.8671875 31.64453125 C6.46487962 29.52869105 4.22791166 27.2975339 2 25 C-5.17286143 28.26904746 -10.54439257 34.4903987 -16 40.03125 C-18.56305228 42.55425459 -21.27345824 44.87562817 -24 47.21875 C-26.08337078 49.0742521 -28.04281207 51.01223101 -30 53 C-33.19337224 56.24326868 -36.52431393 59.23678944 -39.98046875 62.1953125 C-42.88091373 64.7871995 -45.55759685 67.58181575 -48.23828125 70.3984375 C-50 72 -50 72 -53 73 C-53.66 73.99 -54.32 74.98 -55 76 C-62.91183143 79.067853 -70.76024931 78.19850919 -79 77 C-75.12442226 72.20166566 -71.07516114 67.57092523 -66 64 C-65.34 64 -64.68 64 -64 64 C-63.60361328 63.12794922 -63.60361328 63.12794922 -63.19921875 62.23828125 C-58.93806669 54.28505608 -50.96988641 47.51653892 -44.1875 41.6875 C-40.97666245 38.92381971 -37.97732835 36.01380404 -35 33 C-31.47893677 29.43599698 -27.86813992 26.09695832 -24.0625 22.84375 C-20.71648147 19.85261223 -17.61399813 16.62155503 -14.4609375 13.4296875 C-11.64164529 10.64619583 -8.70336732 8.04837931 -5.6953125 5.47265625 C-3.69997138 3.73937606 -1.83007366 1.90632672 0 0 Z " fill="#B2B9C2" transform="translate(251,139)"/>
<path d="M0 0 C28.61933905 -0.90855045 28.61933905 -0.90855045 36 6 C41.3102664 11.56114513 41.41076301 18.65888204 41.34765625 25.98828125 C40.67915584 31.77944776 37.69690636 35.30309364 33.6875 39.3125 C26.16906811 44.03337584 19.66551531 44.39732926 11 44.1875 C5.555 44.0946875 5.555 44.0946875 0 44 C0 29.48 0 14.96 0 0 Z " fill="#0FC1EE" transform="translate(179,233)"/>
<path d="M0 0 C-0.71542969 0.71414063 -1.43085938 1.42828125 -2.16796875 2.1640625 C-3.99009056 3.98554339 -5.80363867 5.81444996 -7.61328125 7.6484375 C-8.50402344 8.54820312 -9.39476562 9.44796875 -10.3125 10.375 C-11.19550781 11.26960938 -12.07851563 12.16421875 -12.98828125 13.0859375 C-15.84918765 15.91319765 -18.87495594 18.52912394 -21.91430664 21.16162109 C-26.08688117 24.83942587 -30.07694669 28.71794976 -34.08789062 32.5703125 C-38.18621045 36.45754297 -42.35860507 39.78364494 -47 43 C-48.70680947 44.62553283 -50.37660195 46.29115995 -52 48 C-55.23949837 51.33205546 -58.59052457 54.5305783 -62 57.6875 C-62.825 58.45449219 -63.65 59.22148437 -64.5 60.01171875 C-66.95375845 61.96322351 -69.04369301 63.01280463 -72 64 C-72.495 62.515 -72.495 62.515 -73 61 C-72.67 60.34 -72.34 59.68 -72 59 C-72.78375 58.773125 -73.5675 58.54625 -74.375 58.3125 C-77 57 -77 57 -78.3125 54.375 C-78.539375 53.59125 -78.76625 52.8075 -79 52 C-79.99 52.66 -80.98 53.32 -82 54 C-80.41363945 49.87351611 -77.40781188 47.36760659 -74.1875 44.5 C-73.00117747 43.42461662 -71.814983 42.34909195 -70.62890625 41.2734375 C-70.02320801 40.7278418 -69.41750977 40.18224609 -68.79345703 39.62011719 C-66.05111409 37.14282509 -63.33799187 34.63433903 -60.625 32.125 C-59.82968872 31.39120117 -59.82968872 31.39120117 -59.01831055 30.64257812 C-55.47114032 27.36810422 -51.93476915 24.08235014 -48.41235352 20.78125 C-47.1367881 19.59313239 -45.85335815 18.41340288 -44.56225586 17.2421875 C-41.50198215 14.44956599 -38.6670571 11.68121769 -36.07421875 8.4453125 C-26.34866489 -3.08151535 -14.11799003 -1.23301223 0 0 Z " fill="#6C7687" transform="translate(335,291)"/>
<path d="M0 0 C3.63 0 7.26 0 11 0 C12.62870412 2.89380455 14.25306236 5.78990618 15.875 8.6875 C16.33519531 9.50412109 16.79539063 10.32074219 17.26953125 11.16210938 C19.43297538 15.03436082 21.51333589 18.80487311 23 23 C24.03433558 20.94012171 25.05935773 18.87716456 26.06225586 16.80175781 C27.3096849 14.25986681 28.62113801 11.75682718 29.9375 9.25 C30.36095703 8.36183594 30.78441406 7.47367188 31.22070312 6.55859375 C32.58984375 4.015625 32.58984375 4.015625 36 0 C39.63 0 43.26 0 47 0 C47 14.19 47 28.38 47 43 C43.7 43 40.4 43 37 43 C36.67 35.74 36.34 28.48 36 21 C32.54336687 27.24379227 32.54336687 27.24379227 29.12011719 33.50585938 C28.68344727 34.27736328 28.24677734 35.04886719 27.796875 35.84375 C27.13703613 37.03774414 27.13703613 37.03774414 26.46386719 38.25585938 C25.98079102 38.83142578 25.49771484 39.40699219 25 40 C23.68 40 22.36 40 21 40 C17.7 33.73 14.4 27.46 11 21 C10.67 28.26 10.34 35.52 10 43 C6.7 43 3.4 43 0 43 C0 28.81 0 14.62 0 0 Z " fill="#F1F2F2" transform="translate(125,233)"/>
<path d="M0 0 C2.88226613 1.46990342 5.54814141 3.05544905 8 5.1875 C6.70700306 8.07187779 5.34058637 10.05969421 3 12.1875 C2.236875 11.878125 1.47375 11.56875 0.6875 11.25 C-4.97688891 9.01059043 -9.93615264 8.52260446 -16 9.1875 C-19.00197464 10.98868478 -20.45166366 12.09082732 -22 15.1875 C-22.80398337 22.42047905 -22.80398337 22.42047905 -20.953125 29.27734375 C-19.19959481 31.38673742 -17.4596008 32.9576996 -15 34.1875 C-9.95624681 34.49101789 -4.90739626 34.496139 0 33.1875 C0 31.2075 0 29.2275 0 27.1875 C-3.96 27.1875 -7.92 27.1875 -12 27.1875 C-12 24.5475 -12 21.9075 -12 19.1875 C-5.07 19.1875 1.86 19.1875 9 19.1875 C9.1546875 23.51875 9.1546875 23.51875 9.3125 27.9375 C9.35802002 28.84081055 9.40354004 29.74412109 9.45043945 30.67480469 C9.55278426 36.58307153 9.55278426 36.58307153 6.7421875 39.65625 C-1.69269263 44.36632551 -10.19254303 45.6324247 -19.625 43.25 C-26.10367977 40.83344094 -30.3772408 35.29778846 -33.5 29.3125 C-34.98250581 20.04683872 -34.2229257 13.60201518 -29.4375 5.5625 C-21.31229421 -2.35436718 -10.48222031 -4.44074358 0 0 Z " fill="#EFEFF0" transform="translate(275,233.8125)"/>
<path d="M0 0 C4.34207033 0.08231413 4.34207033 0.08231413 6.4375 2.25 C6.829375 3.28125 7.22125 4.3125 7.625 5.375 C7.91503906 6.06851563 8.20507812 6.76203125 8.50390625 7.4765625 C10.03549574 11.16438975 11.44461948 14.89590015 12.8515625 18.6328125 C15.55792619 25.82698647 15.55792619 25.82698647 18.875 32.75 C20.7483865 36.30036958 21.29259858 39.38618293 21.625 43.375 C18.325 43.375 15.025 43.375 11.625 43.375 C10.635 41.065 9.645 38.755 8.625 36.375 C3.015 36.375 -2.595 36.375 -8.375 36.375 C-9.365 38.685 -10.355 40.995 -11.375 43.375 C-14.675 43.375 -17.975 43.375 -21.375 43.375 C-20.65564398 38.3189548 -18.66978392 33.81815328 -16.75 29.125 C-16.39607178 28.25125732 -16.04214355 27.37751465 -15.67749023 26.47729492 C-14.58097915 23.77475068 -13.47804572 21.07488252 -12.375 18.375 C-11.69116901 16.68889828 -11.00756597 15.00270409 -10.32421875 13.31640625 C-9.69581333 11.77323346 -9.06693067 10.2302549 -8.4375 8.6875 C-8.14343262 7.96336914 -7.84936523 7.23923828 -7.54638672 6.49316406 C-4.96440336 0.20885839 -4.96440336 0.20885839 0 0 Z " fill="#F0F1F1" transform="translate(359.375,232.625)"/>
<path d="M0 0 C0.80050781 0.05800781 1.60101563 0.11601562 2.42578125 0.17578125 C3.23402344 0.22089844 4.04226562 0.26601562 4.875 0.3125 C5.48988281 0.37050781 6.10476562 0.42851562 6.73828125 0.48828125 C21.14978629 34.53047976 21.14978629 34.53047976 22.73828125 43.48828125 C19.43828125 43.48828125 16.13828125 43.48828125 12.73828125 43.48828125 C11.74828125 41.17828125 10.75828125 38.86828125 9.73828125 36.48828125 C4.45828125 36.48828125 -0.82171875 36.48828125 -6.26171875 36.48828125 C-7.25171875 38.79828125 -8.24171875 41.10828125 -9.26171875 43.48828125 C-12.89171875 43.48828125 -16.52171875 43.48828125 -20.26171875 43.48828125 C-17.92561849 36.0581846 -15.05999949 28.8819769 -12.07324219 21.69384766 C-11.25841362 19.73031672 -10.4512316 17.76375713 -9.64453125 15.796875 C-9.12154999 14.53236329 -8.59812795 13.26803378 -8.07421875 12.00390625 C-7.60628906 10.87243164 -7.13835937 9.74095703 -6.65625 8.57519531 C-3.08304308 0.66559652 -3.08304308 0.66559652 0 0 Z " fill="#F0F1F1" transform="translate(99.26171875,232.51171875)"/>
<path d="M0 0 C3.86243957 -0.7029072 7.16352866 -0.9288299 11 0 C14.35756148 3.27035209 16.56195787 7.02668134 19 11 C20.59896234 12.78470479 20.59896234 12.78470479 22 14 C22.59425781 12.989375 23.18851562 11.97875 23.80078125 10.9375 C30.31940248 0.50185974 30.31940248 0.50185974 35.11328125 -0.9296875 C37.86472456 -0.87972614 40.32674816 -0.64036071 43 0 C41.78125 1.625 41.78125 1.625 40.5625 3.25 C40.02625 3.97316406 39.49 4.69632813 38.9375 5.44140625 C37.50970359 7.32690352 36.04575717 9.18515736 34.5625 11.02734375 C33.94266235 11.81093262 33.94266235 11.81093262 33.31030273 12.61035156 C32.10264094 14.13676423 30.88161081 15.65257065 29.66015625 17.16796875 C27.81397073 19.79638719 27.81397073 19.79638719 27.93359375 22.38671875 C29.46969344 26.151007 31.66853463 29.30913814 34 32.625 C34.91973368 33.94839458 35.83652637 35.27383919 36.75 36.6015625 C37.15734375 37.18244629 37.5646875 37.76333008 37.984375 38.36181641 C39 40 39 40 40 43 C36.10735732 43.77280406 32.8583188 44.03429308 29 43 C26.3177994 40.06459967 24.49014577 37.09456537 22.55859375 33.625 C22.04425781 32.75875 21.52992188 31.8925 21 31 C20.34 31 19.68 31 19 31 C17.59780624 32.6604653 17.59780624 32.6604653 16.20703125 34.83984375 C15.65853516 35.65646484 15.11003906 36.47308594 14.54492188 37.31445312 C13.68737305 38.61286133 13.68737305 38.61286133 12.8125 39.9375 C9.41665275 45.04513956 5.99467277 50.1356909 2.3828125 55.09375 C1.85187988 55.83173828 1.32094727 56.56972656 0.77392578 57.33007812 C-1.48330003 59.45496452 -2.88602166 59.53491426 -5.9375 59.5625 C-8.27734375 59.31640625 -8.27734375 59.31640625 -10 59 C-9.3971722 55.83743915 -8.3989918 53.90009563 -6.41015625 51.3828125 C-5.87729004 50.69985107 -5.34442383 50.01688965 -4.79541016 49.31323242 C-4.2235498 48.59111572 -3.65168945 47.86899902 -3.0625 47.125 C-1.88271943 45.60394568 -0.7043539 44.08179286 0.47265625 42.55859375 C1.06320801 41.79659668 1.65375977 41.03459961 2.26220703 40.24951172 C4.83426497 36.92007341 7.37802525 33.5736147 9.875 30.1875 C10.3093335 29.6198291 10.74366699 29.0521582 11.19116211 28.46728516 C13.45253705 25.55415914 13.45253705 25.55415914 13.73828125 22.04003906 C12.9782481 19.93989455 12.08129529 18.34337583 10.8203125 16.50390625 C10.38589844 15.86259766 9.95148438 15.22128906 9.50390625 14.56054688 C8.82134766 13.57151367 8.82134766 13.57151367 8.125 12.5625 C7.2307258 11.2520146 6.33747391 9.94083092 5.4453125 8.62890625 C4.81351074 7.70102295 4.81351074 7.70102295 4.16894531 6.75439453 C2.69937288 4.54880818 1.33278088 2.29044132 0 0 Z " fill="#16DCF3" transform="translate(415,233)"/>
<path d="M0 0 C2.39834577 1.20600578 4.71070833 2.46560057 6.9921875 3.87890625 C5.91817642 6.79407917 5.21408574 8.65700801 2.9921875 10.87890625 C0.16260921 10.5161398 -2.29865541 9.78195861 -5.0078125 8.87890625 C-9.6626095 8.57352445 -9.6626095 8.57352445 -14.0078125 9.87890625 C-13.98779396 11.82576572 -13.98779396 11.82576572 -13.0078125 13.87890625 C-10.21324481 15.33004147 -10.21324481 15.33004147 -6.8203125 16.37890625 C4.31164527 20.35809291 4.31164527 20.35809291 7.9921875 25.87890625 C8.75098843 30.51112124 8.40727006 34.04874114 6.3046875 38.25390625 C2.98476148 42.02247093 0.52518326 43.70555196 -4.53125 44.27734375 C-19.70169005 44.1850287 -19.70169005 44.1850287 -25.0078125 38.87890625 C-24.85927637 35.90818359 -24.59571322 34.42158384 -22.3828125 32.37890625 C-19.31292387 31.73261391 -17.69015075 32.79881242 -14.94921875 34.13671875 C-11.58244471 35.42381547 -8.5784542 35.12098365 -5.0078125 34.87890625 C-4.0178125 34.38390625 -4.0178125 34.38390625 -3.0078125 33.87890625 C-3.0078125 32.22890625 -3.0078125 30.57890625 -3.0078125 28.87890625 C-4.1215625 28.46640625 -5.2353125 28.05390625 -6.3828125 27.62890625 C-7.10726562 27.35175781 -7.83171875 27.07460938 -8.578125 26.7890625 C-10.24956706 26.16294353 -11.93299519 25.56821057 -13.625 25 C-17.81924158 23.51272443 -20.51992719 22.3900242 -23.6328125 19.12890625 C-25.28157993 15.23181961 -26.0696891 11.99169694 -25.0078125 7.87890625 C-19.38832472 -1.38418489 -10.13920713 -3.77915902 0 0 Z " fill="#EEEFF0" transform="translate(72.0078125,233.12109375)"/>
<path d="M0 0 C11.88 0 23.76 0 36 0 C36 2.97 36 5.94 36 9 C32.04 9 28.08 9 24 9 C24 20.22 24 31.44 24 43 C20.7 43 17.4 43 14 43 C14 31.78 14 20.56 14 9 C9.38 9 4.76 9 0 9 C0 6.03 0 3.06 0 0 Z " fill="#ECEDEE" transform="translate(305,233)"/>
<path d="M0 0 C3.63 0 7.26 0 11 0 C11 11.55 11 23.1 11 35 C17.27 35 23.54 35 30 35 C30 37.64 30 40.28 30 43 C20.1 43 10.2 43 0 43 C0 28.81 0 14.62 0 0 Z " fill="#EAEAEB" transform="translate(384,233)"/>
<path d="M0 0 C14.77142857 0 14.77142857 0 19 4 C22.11027212 8.66540818 21.60536455 13.53695405 21 19 C18.70832484 23.09227707 17.25482781 23.87258609 13 26 C8.71 26 4.42 26 0 26 C0 17.42 0 8.84 0 0 Z " fill="#1D283E" transform="translate(189,242)"/>
<path d="M0 0 C3.3 0 6.6 0 10 0 C10 14.19 10 28.38 10 43 C6.7 43 3.4 43 0 43 C0 28.81 0 14.62 0 0 Z " fill="#F5F6F6" transform="translate(291,233)"/>
<path d="M0 0 C3.3 0 6.6 0 10 0 C10 14.19 10 28.38 10 43 C6.7 43 3.4 43 0 43 C0 28.81 0 14.62 0 0 Z " fill="#F4F5F5" transform="translate(226,233)"/>
<path d="M0 0 C19.29659854 -0.996954 19.29659854 -0.996954 26 5 C30.60987234 10.5318468 31.13962649 15.29398916 31.0625 22.3125 C31.05347656 23.38113281 31.04445312 24.44976562 31.03515625 25.55078125 C31.02355469 26.35902344 31.01195312 27.16726563 31 28 C29.68 28.33 28.36 28.66 27 29 C27 29.99 27 30.98 27 32 C25.125 33.0625 25.125 33.0625 23 34 C22.34 33.67 21.68 33.34 21 33 C19.515 33.495 19.515 33.495 18 34 C19.07401108 31.08482708 19.77810176 29.22189824 22 27 C22.24188902 21.99289725 21.77924922 17.38533195 19.3125 13 C12.83062655 7.39405539 6.27077809 7.35586434 -2 7 C-2 6.01 -2 5.02 -2 4 C-0.35 4 1.3 4 3 4 C3 3.34 3 2.68 3 2 C2.01 1.67 1.02 1.34 0 1 C0 0.67 0 0.34 0 0 Z " fill="#0FCDF2" transform="translate(189,234)"/>
<path d="M0 0 C2.58928741 1.24126452 2.58928741 1.24126452 5.375 0.0625 C6.096875 -0.30875 6.81875 -0.68 7.5625 -1.0625 C7.81 -0.11375 8.0575 0.835 8.3125 1.8125 C9.73673987 5.37309968 10.27965887 5.45492659 13.5625 6.9375 C14.1875 9 14.1875 9 14.5625 10.9375 C15.2225 11.2675 15.8825 11.5975 16.5625 11.9375 C15.95921875 12.46859375 15.3559375 12.9996875 14.734375 13.546875 C13.93515625 14.25328125 13.1359375 14.9596875 12.3125 15.6875 C11.12914062 16.73164063 11.12914062 16.73164063 9.921875 17.796875 C7.53044007 19.88591127 7.53044007 19.88591127 5.515625 22.265625 C3.5625 23.9375 3.5625 23.9375 1.578125 23.94140625 C-1.03036179 22.64221806 -2.68050907 20.98234047 -4.6875 18.875 C-5.39390625 18.14152344 -6.1003125 17.40804688 -6.828125 16.65234375 C-7.35921875 16.08644531 -7.8903125 15.52054687 -8.4375 14.9375 C-7.4475 14.6075 -6.4575 14.2775 -5.4375 13.9375 C-6.03762871 9.27086803 -6.03762871 9.27086803 -7.0625 4.6875 C-7.4375 2.9375 -7.4375 2.9375 -6.4375 -0.0625 C-3.75968364 -1.30577188 -2.72721115 -1.18878435 0 0 Z " fill="#364A68" transform="translate(249.4375,343.0625)"/>
<path d="M0 0 C0.33 0.66 0.66 1.32 1 2 C0.67 2.99 0.34 3.98 0 5 C1.32 5.33 2.64 5.66 4 6 C4 5.34 4 4.68 4 4 C4.99 4.33 5.98 4.66 7 5 C4.9595973 7.83424546 2.917441 10.66722313 0.875 13.5 C0.30523437 14.29148437 -0.26453125 15.08296875 -0.8515625 15.8984375 C-1.99769538 17.48739445 -3.14891426 19.07269513 -4.30517578 20.65429688 C-5.42649862 22.20625161 -6.52445787 23.77538315 -7.59716797 25.36132812 C-8.35344482 26.4509082 -8.35344482 26.4509082 -9.125 27.5625 C-9.78242188 28.53896484 -9.78242188 28.53896484 -10.453125 29.53515625 C-12.54683513 31.51783629 -14.04489785 31.4747261 -16.875 31.5 C-18.25418793 31.37255029 -19.63233135 31.21882698 -21 31 C-20.3935886 27.77146214 -19.3305991 25.81168463 -17.3046875 23.2421875 C-16.75643311 22.53827881 -16.20817871 21.83437012 -15.64331055 21.10913086 C-15.05976807 20.37186768 -14.47622559 19.63460449 -13.875 18.875 C-12.68985502 17.35407207 -11.50625258 15.83194086 -10.32421875 14.30859375 C-9.7523584 13.57237793 -9.18049805 12.83616211 -8.59130859 12.07763672 C-5.58412891 8.15141715 -2.76860468 4.09753492 0 0 Z " fill="#0CD5EE" transform="translate(426,261)"/>
<path d="M0 0 C8.25 0 16.5 0 25 0 C25 0.33 25 0.66 25 1 C17.08 1 9.16 1 1 1 C1 14.53 1 28.06 1 42 C11.89 41.505 11.89 41.505 23 41 C22.34 40.34 21.68 39.68 21 39 C21.99 38.505 21.99 38.505 23 38 C21.18884044 36.18884044 18.38721773 36.61800552 15.9375 36.4375 C14.83277344 36.35371094 13.72804687 36.26992188 12.58984375 36.18359375 C11.73519531 36.12300781 10.88054687 36.06242187 10 36 C10 35.67 10 35.34 10 35 C10.89203125 34.95101562 11.7840625 34.90203125 12.703125 34.8515625 C13.87359375 34.77679688 15.0440625 34.70203125 16.25 34.625 C17.99023438 34.52058594 17.99023438 34.52058594 19.765625 34.4140625 C23.81339127 33.8958702 25.87836787 33.16013209 28.70703125 30.234375 C30.2987531 27.48372577 30.49944556 25.40931461 30.6875 22.25 C30.75324219 21.26515625 30.81898438 20.2803125 30.88671875 19.265625 C30.92410156 18.51796875 30.96148437 17.7703125 31 17 C31.33 17 31.66 17 32 17 C33.61050328 26.99562363 33.61050328 26.99562363 31.0625 31.1875 C30.381875 31.785625 29.70125 32.38375 29 33 C32.05263664 33.98120464 33.94736336 33.98120464 37 33 C37 32.01 37 31.02 37 30 C37.99 29.67 38.98 29.34 40 29 C38.93211258 33.98347464 36.95340646 36.38256807 33.2421875 39.60546875 C25.91135386 44.16488967 19.41527967 44.39126999 11 44.1875 C5.555 44.0946875 5.555 44.0946875 0 44 C0 29.48 0 14.96 0 0 Z " fill="#189FCF" transform="translate(179,233)"/>
<path d="M0 0 C6.8371875 -0.0309375 6.8371875 -0.0309375 13.8125 -0.0625 C15.24698486 -0.071604 16.68146973 -0.08070801 18.15942383 -0.09008789 C19.28888428 -0.09258545 20.41834473 -0.09508301 21.58203125 -0.09765625 C22.73936768 -0.10289307 23.8967041 -0.10812988 25.08911133 -0.11352539 C28 0 28 0 31 1 C31 1.66 31 2.32 31 3 C30.46084961 2.84152588 29.92169922 2.68305176 29.36621094 2.51977539 C26.59442811 1.91090977 23.97711149 1.78489684 21.140625 1.68359375 C19.63290527 1.62643188 19.63290527 1.62643188 18.09472656 1.56811523 C16.19158691 1.50346069 16.19158691 1.50346069 14.25 1.4375 C10.2075 1.293125 6.165 1.14875 2 1 C2 15.19 2 29.38 2 44 C-1.00617269 40.99382731 -0.59585316 38.17618402 -1 34 C-1.33 37.3 -1.66 40.6 -2 44 C-2.99 44 -3.98 44 -5 44 C-5 29.81 -5 15.62 -5 1 C-4.67 1 -4.34 1 -4 1 C-3.97494385 1.74685059 -3.9498877 2.49370117 -3.92407227 3.26318359 C-3.80831787 6.63397267 -3.68549872 10.00446783 -3.5625 13.375 C-3.52318359 14.550625 -3.48386719 15.72625 -3.44335938 16.9375 C-3.40146484 18.05898437 -3.35957031 19.18046875 -3.31640625 20.3359375 C-3.27974854 21.37282715 -3.24309082 22.4097168 -3.20532227 23.47802734 C-3.15835777 25.99425166 -3.15835777 25.99425166 -2 28 C-1.34 28 -0.68 28 0 28 C0 18.76 0 9.52 0 0 Z " fill="#233853" transform="translate(177,232)"/>
<path d="M0 0 C1.9375 1.125 1.9375 1.125 3 3 C3.65088557 7.39347757 3.47438867 9.30998011 0.9375 13 C-2 15 -2 15 -5.625 15.125 C-9 14 -9 14 -10.9375 11.8125 C-12.18311429 8.5152857 -12.5938584 6.4889181 -12 3 C-8.26005342 -1.41993687 -5.4320109 -1.50889192 0 0 Z " fill="#11D1E7" transform="translate(256,201)"/>
<path d="M0 0 C2.875 1.625 2.875 1.625 5 4 C5.625 6.9375 5.625 6.9375 5 10 C2.9375 12.9375 2.9375 12.9375 0 15 C-3.54361243 15 -5.86591591 14.65850044 -8.9375 12.875 C-10.6712306 9.81547541 -10.42145216 7.43182475 -10 4 C-7.25657347 -0.1151398 -4.81370572 -0.78591114 0 0 Z " fill="#0DA8E7" transform="translate(254,297)"/>
<path d="M0 0 C2 2 2 2 2.3125 5.9375 C2.23081662 8.43791894 2.12109418 9.77205801 0.9375 12 C-2.16867275 13.60318593 -4.57990979 13.42751128 -8 13 C-10.87915173 10.67810344 -10.98552483 9.11786923 -11.4375 5.4375 C-11 2 -11 2 -9.4375 0 C-5.97697331 -1.41970326 -3.58483216 -0.86301515 0 0 Z " fill="#0F99DB" transform="translate(256,347)"/>
<path d="M0 0 C0.33 0 0.66 0 1 0 C1 14.19 1 28.38 1 43 C0.67 43 0.34 43 0 43 C-0.33 39.37 -0.66 35.74 -1 32 C-2.485 32.495 -2.485 32.495 -4 33 C-4.33 33.99 -4.66 34.98 -5 36 C-5.99 35.67 -6.98 35.34 -8 35 C-7.67257813 34.18273437 -7.34515625 33.36546875 -7.0078125 32.5234375 C-5.83048907 28.40736876 -5.77521838 24.86955666 -5.875 20.625 C-5.88853516 19.52091797 -5.88853516 19.52091797 -5.90234375 18.39453125 C-5.92569856 16.5962112 -5.96156164 14.79806089 -6 13 C-5.01 14.485 -5.01 14.485 -4 16 C-2.68 15.34 -1.36 14.68 0 14 C0 9.38 0 4.76 0 0 Z " fill="#2C3549" transform="translate(225,233)"/>
<path d="M0 0 C0.33 0 0.66 0 1 0 C1 8.25 1 16.5 1 25 C7.435 24.505 7.435 24.505 14 24 C14 22.35 14 20.7 14 19 C14.33 19.99 14.66 20.98 15 22 C15.66 22 16.32 22 17 22 C17 20.68 17 19.36 17 18 C16.34 18 15.68 18 15 18 C14.65384002 12.34605369 15.56574762 8.96993194 18 4 C20.37214497 5.8247269 20.95782822 6.73329197 21.43359375 9.7421875 C21.44414823 18.20687817 21.44414823 18.20687817 19.25 22.125 C12.6557244 27.62022967 9.96335393 26 0 26 C0 17.42 0 8.84 0 0 Z " fill="#153C58" transform="translate(189,242)"/>
<path d="M0 0 C-0.37511719 0.49628906 -0.75023437 0.99257812 -1.13671875 1.50390625 C-4.49163919 5.95741524 -7.77711236 10.45004098 -11 15 C-11.37125 14.0409375 -11.37125 14.0409375 -11.75 13.0625 C-12.81562433 10.81258459 -12.81562433 10.81258459 -15.125 10.25 C-15.74375 10.1675 -16.3625 10.085 -17 10 C-13.65133266 0.2330536 -9.79063584 -0.7596183 0 0 Z " fill="#19DBE9" transform="translate(458,233)"/>
<path d="M0 0 C1.20849609 0.02707031 2.41699219 0.05414063 3.66210938 0.08203125 C6.63076181 0.15243407 9.59568947 0.25086567 12.5625 0.375 C10.9125 2.025 9.2625 3.675 7.5625 5.375 C7.0675 4.385 7.0675 4.385 6.5625 3.375 C-4.86848444 1.67818053 -4.86848444 1.67818053 -15.66210938 4.66845703 C-19.59497608 7.89329307 -22.78536689 11.68983672 -25.95214844 15.64990234 C-28.19218611 18.25149771 -30.73552398 20.26584559 -33.4375 22.375 C-34.0975 22.045 -34.7575 21.715 -35.4375 21.375 C-33.08765244 18.99569437 -30.73183422 16.62238355 -28.375 14.25 C-27.71822266 13.58484375 -27.06144531 12.9196875 -26.38476562 12.234375 C-25.05877875 10.90185617 -23.7199512 9.5819979 -22.36889648 8.27490234 C-20.4476987 6.43333221 -20.4476987 6.43333221 -18.85180664 4.55712891 C-13.47346593 -1.09627385 -7.38546221 -0.31427499 0 0 Z " fill="#AEB6C2" transform="translate(322.4375,290.625)"/>
<path d="M0 0 C1.8125 1.125 1.8125 1.125 3 3 C3.39769128 6.18153026 3.55198782 8.12844028 1.8125 10.875 C-0.65507108 12.40659584 -2.14519831 12.42822025 -5 12 C-6.8125 10.875 -6.8125 10.875 -8 9 C-8.39769128 5.81846974 -8.55198782 3.87155972 -6.8125 1.125 C-4.34492892 -0.40659584 -2.85480169 -0.42822025 0 0 Z " fill="#718397" transform="translate(309,133)"/>
<path d="M0 0 C3.375 0.6875 3.375 0.6875 4.375 1.6875 C4.8306962 6.92800633 4.8306962 6.92800633 3.25 9.5625 C0.50583761 11.20899743 -1.4944571 11.08714378 -4.625 10.6875 C-6.92519361 7.23720958 -7.05632515 5.74195642 -6.625 1.6875 C-3.625 -0.3125 -3.625 -0.3125 0 0 Z " fill="#5B7087" transform="translate(192.625,165.3125)"/>
<path d="M0 0 C1.67542976 0.28604898 3.34385343 0.61781233 5 1 C5.33 2.65 5.66 4.3 6 6 C5.01 6.495 5.01 6.495 4 7 C3.67 15.58 3.34 24.16 3 33 C6.96 33 10.92 33 15 33 C18.20249944 35.26058784 19.52525547 36.64880402 20.8125 40.3125 C20.874375 40.869375 20.93625 41.42625 21 42 C18.66666667 39.66666667 16.33333333 37.33333333 14 35 C10.04 34.67 6.08 34.34 2 34 C2 25.09 2 16.18 2 7 C1.01 7 0.02 7 -1 7 C-1.04254356 5.00045254 -1.04080783 2.99958364 -1 1 C-0.67 0.67 -0.34 0.34 0 0 Z " fill="#131B2D" transform="translate(160,160)"/>
<path d="M0 0 C2.4375 0.75 2.4375 0.75 4.4375 2.75 C3.86057692 9.32692308 3.86057692 9.32692308 2.4375 10.75 C-2.78098739 11.20378151 -2.78098739 11.20378151 -5.5 9.625 C-6.5625 7.75 -6.5625 7.75 -6.4375 4.6875 C-5.31039351 0.90364248 -4.04478927 -0.39461359 0 0 Z " fill="#3C4558" transform="translate(188.5625,325.25)"/>
<path d="M0 0 C2.58928741 1.24126452 2.58928741 1.24126452 5.375 0.0625 C6.096875 -0.30875 6.81875 -0.68 7.5625 -1.0625 C7.85125 -0.093125 8.14 0.87625 8.4375 1.875 C9.20464682 5.04414203 9.20464682 5.04414203 11.5625 5.9375 C11.28122579 7.41867801 10.98716268 8.89743249 10.6875 10.375 C10.52507812 11.19871094 10.36265625 12.02242188 10.1953125 12.87109375 C9.98648437 13.55300781 9.77765625 14.23492187 9.5625 14.9375 C8.9025 15.2675 8.2425 15.5975 7.5625 15.9375 C7.59730469 15.23882812 7.63210938 14.54015625 7.66796875 13.8203125 C7.69503906 12.91023438 7.72210938 12.00015625 7.75 11.0625 C7.78480469 10.15757812 7.81960938 9.25265625 7.85546875 8.3203125 C7.71044922 7.14082031 7.71044922 7.14082031 7.5625 5.9375 C4.65664313 3.54951318 4.65664313 3.54951318 0.9375 4.25 C-2.26254312 4.57863123 -2.26254312 4.57863123 -3.4375 5.9375 C-3.50929964 7.45678038 -3.52142007 8.97917482 -3.5 10.5 C-3.49097656 11.32628906 -3.48195312 12.15257812 -3.47265625 13.00390625 C-3.46105469 13.64199219 -3.44945312 14.28007812 -3.4375 14.9375 C-4.0975 14.6075 -4.7575 14.2775 -5.4375 13.9375 C-5.83210023 11.61374308 -6.15980092 9.2781065 -6.4375 6.9375 C-6.64375 6.195 -6.85 5.4525 -7.0625 4.6875 C-7.4375 2.9375 -7.4375 2.9375 -6.4375 -0.0625 C-3.75968364 -1.30577188 -2.72721115 -1.18878435 0 0 Z " fill="#445168" transform="translate(249.4375,343.0625)"/>
<path d="M0 0 C3.70806596 -0.11674705 7.4156554 -0.18743274 11.125 -0.25 C12.17171875 -0.28351563 13.2184375 -0.31703125 14.296875 -0.3515625 C21.99695933 -0.44903192 25.60109094 0.88528066 31.3359375 6.140625 C32.00882813 6.83671875 32.68171875 7.5328125 33.375 8.25 C34.06335938 8.95640625 34.75171875 9.6628125 35.4609375 10.390625 C35.96882813 10.92171875 36.47671875 11.4528125 37 12 C36.01 12.33 35.02 12.66 34 13 C33.27683594 12.13375 33.27683594 12.13375 32.5390625 11.25 C31.59160156 10.13625 31.59160156 10.13625 30.625 9 C29.99851563 8.2575 29.37203125 7.515 28.7265625 6.75 C28.15679687 6.1725 27.58703125 5.595 27 5 C26.34 5 25.68 5 25 5 C24.67 4.34 24.34 3.68 24 3 C22.80761719 3.01160156 21.61523438 3.02320313 20.38671875 3.03515625 C18.82031406 3.04453592 17.25390769 3.05363593 15.6875 3.0625 C14.50897461 3.07506836 14.50897461 3.07506836 13.30664062 3.08789062 C12.54931641 3.09111328 11.79199219 3.09433594 11.01171875 3.09765625 C9.96697388 3.10551147 9.96697388 3.10551147 8.90112305 3.11352539 C7 3 7 3 4 2 C4 2.66 4 3.32 4 4 C2.68 3.34 1.36 2.68 0 2 C0 1.34 0 0.68 0 0 Z " fill="#828C9B" transform="translate(171,291)"/>
<path d="M0 0 C5.61 0 11.22 0 17 0 C17 1.98 17 3.96 17 6 C15.22925083 6.02705729 13.45838289 6.04642195 11.6875 6.0625 C10.70136719 6.07410156 9.71523437 6.08570313 8.69921875 6.09765625 C6 6 6 6 3 5 C3 4.01 3 3.02 3 2 C2.01 1.67 1.02 1.34 0 1 C0 0.67 0 0.34 0 0 Z " fill="#0BD6F6" transform="translate(189,234)"/>
<path d="M0 0 C0.33 0 0.66 0 1 0 C1.90413673 3.83724172 2.10576898 7.37502274 2.0625 11.3125 C2.05347656 12.38113281 2.04445312 13.44976562 2.03515625 14.55078125 C2.02355469 15.35902344 2.01195312 16.16726563 2 17 C0.68 17.33 -0.64 17.66 -2 18 C-2 18.99 -2 19.98 -2 21 C-3.875 22.0625 -3.875 22.0625 -6 23 C-6.66 22.67 -7.32 22.34 -8 22 C-8.99 22.33 -9.98 22.66 -11 23 C-8.90824468 17.04654255 -8.90824468 17.04654255 -6 15 C-3.3125 14.8125 -3.3125 14.8125 -1 15 C-1 14.34 -1 13.68 -1 13 C-0.34 13 0.32 13 1 13 C0.84402344 12.39671875 0.68804687 11.7934375 0.52734375 11.171875 C0.23537109 9.97304687 0.23537109 9.97304687 -0.0625 8.75 C-0.25972656 7.96109375 -0.45695313 7.1721875 -0.66015625 6.359375 C-1.01497267 3.89605178 -0.76877544 2.34395868 0 0 Z " fill="#08C2F5" transform="translate(218,245)"/>
<path d="M0 0 C4.12145716 3.47495408 4.62097262 7.94356628 6 13 C2.7 13 -0.6 13 -4 13 C-3.40895235 8.15340923 -2.02055843 4.39251833 0 0 Z " fill="#313748" transform="translate(359,247)"/>
<path d="M0 0 C1.95803507 -0.05389087 3.91648909 -0.09274217 5.875 -0.125 C7.51082031 -0.15980469 7.51082031 -0.15980469 9.1796875 -0.1953125 C12 0 12 0 14 2 C13.67 2.66 13.34 3.32 13 4 C13.66 4.66 14.32 5.32 15 6 C9.39 6 3.78 6 -2 6 C-1.34 5.67 -0.68 5.34 0 5 C0 3.35 0 1.7 0 0 Z " fill="#0CB2EF" transform="translate(189,269)"/>
<path d="M0 0 C0.66 0 1.32 0 2 0 C2.67057887 1.7902061 3.3363469 3.58221489 4 5.375 C4.556875 6.87160156 4.556875 6.87160156 5.125 8.3984375 C6 11 6 11 6 13 C2.7 13 -0.6 13 -4 13 C-3.25107424 10.00429695 -2.42395057 7.16646256 -1.4375 4.25 C-1.16808594 3.45078125 -0.89867188 2.6515625 -0.62109375 1.828125 C-0.41613281 1.22484375 -0.21117188 0.6215625 0 0 Z " fill="#393D4F" transform="translate(100,247)"/>
<path d="M0 0 C0.66 0 1.32 0 2 0 C2.06058594 1.24136719 2.12117188 2.48273438 2.18359375 3.76171875 C2.26803623 5.40365577 2.35268236 7.04558232 2.4375 8.6875 C2.47681641 9.50412109 2.51613281 10.32074219 2.55664062 11.16210938 C2.76898003 15.19655811 3.04447922 19.05747309 4 23 C2.35 23.33 0.7 23.66 -1 24 C-1.38218767 22.34385343 -1.71395102 20.67542976 -2 19 C-1.67 18.67 -1.34 18.34 -1 18 C-0.84417697 16.65984779 -0.74955858 15.31241097 -0.68359375 13.96484375 C-0.62075195 12.75151367 -0.62075195 12.75151367 -0.55664062 11.51367188 C-0.51732422 10.66353516 -0.47800781 9.81339844 -0.4375 8.9375 C-0.39431641 8.08349609 -0.35113281 7.22949219 -0.30664062 6.34960938 C-0.20023298 4.23327963 -0.09958269 2.11666187 0 0 Z " fill="#141A2E" transform="translate(348,293)"/>
<path d="M0 0 C1.875 1.5 1.875 1.5 3 3 C2.01 3.495 2.01 3.495 1 4 C1 3.34 1 2.68 1 2 C-0.98 2.33 -2.96 2.66 -5 3 C-4.34 3.33 -3.68 3.66 -3 4 C-3.33 5.65 -3.66 7.3 -4 9 C-4.66 9 -5.32 9 -6 9 C-5.67 9.99 -5.34 10.98 -5 12 C-6.65 11.67 -8.3 11.34 -10 11 C-10.48275862 4.72413793 -10.48275862 4.72413793 -8.375 1.5625 C-5.31881548 -0.44814771 -3.59350675 -0.53520313 0 0 Z " fill="#139CD4" transform="translate(254,297)"/>
<path d="M0 0 C2.5625 0.1875 2.5625 0.1875 4.5625 2.1875 C4.1875 5.3125 4.1875 5.3125 3.5625 8.1875 C1.9125 8.5175 0.2625 8.8475 -1.4375 9.1875 C-3 7.4375 -3 7.4375 -4.4375 5.1875 C-4.03579119 1.67254789 -3.65269878 0.28097683 0 0 Z " fill="#495568" transform="translate(304.4375,334.8125)"/>
<path d="M0 0 C0.66 0.33 1.32 0.66 2 1 C0.40956621 6.08938811 -2.7446951 9.87456643 -6 14 C-7.37562854 12.71034824 -8.70766393 11.37310707 -10 10 C-10 9.34 -10 8.68 -10 8 C-9.34 8 -8.68 8 -8 8 C-8 7.01 -8 6.02 -8 5 C-6.576875 4.87625 -6.576875 4.87625 -5.125 4.75 C-1.89538209 4.34925077 -1.89538209 4.34925077 -0.625 1.9375 C-0.41875 1.298125 -0.2125 0.65875 0 0 Z " fill="#192F43" transform="translate(443,234)"/>
<path d="M0 0 C0.33 0 0.66 0 1 0 C2.61785594 10.04125803 2.61785594 10.04125803 0.1875 13.8125 C-0.534375 14.534375 -1.25625 15.25625 -2 16 C-2.5259375 17.60875 -2.5259375 17.60875 -3.0625 19.25 C-3.5265625 20.61125 -3.5265625 20.61125 -4 22 C-4.99 22.33 -5.98 22.66 -7 23 C-6.67 22.01 -6.34 21.02 -6 20 C-10.95 19.67 -15.9 19.34 -21 19 C-21 18.67 -21 18.34 -21 18 C-20.10796875 17.95101563 -19.2159375 17.90203125 -18.296875 17.8515625 C-16.54117188 17.73941406 -16.54117188 17.73941406 -14.75 17.625 C-13.00976562 17.52058594 -13.00976562 17.52058594 -11.234375 17.4140625 C-7.18660873 16.8958702 -5.12163213 16.16013209 -2.29296875 13.234375 C-0.7012469 10.48372577 -0.50055444 8.40931461 -0.3125 5.25 C-0.21388672 3.77273437 -0.21388672 3.77273437 -0.11328125 2.265625 C-0.07589844 1.51796875 -0.03851563 0.7703125 0 0 Z " fill="#18AADB" transform="translate(210,250)"/>
<path d="M0 0 C1.65 0 3.3 0 5 0 C5.33 1.65 5.66 3.3 6 5 C5.01 5.33 4.02 5.66 3 6 C3 12.93 3 19.86 3 27 C2.67 27 2.34 27 2 27 C2 20.07 2 13.14 2 6 C1.01 5.67 0.02 5.34 -1 5 C-0.67 3.35 -0.34 1.7 0 0 Z " fill="#0C1427" transform="translate(347,188)"/>
<path d="M0 0 C0.33 0 0.66 0 1 0 C1 5.94 1 11.88 1 18 C1.99 18.33 2.98 18.66 4 19 C3.67 20.32 3.34 21.64 3 23 C1.35 23.33 -0.3 23.66 -2 24 C-2.33 22.35 -2.66 20.7 -3 19 C-2.01 18.67 -1.02 18.34 0 18 C0 12.06 0 6.12 0 0 Z " fill="#0B1326" transform="translate(161,293)"/>
<path d="M0 0 C1 2 1 2 0.25 5.4375 C-0.8627673 8.60888681 -1.41725594 10.00424323 -4 12 C-2.68 12.66 -1.36 13.32 0 14 C-2.97 14 -5.94 14 -9 14 C-7.93795631 9.75182524 -6.68632824 8.06604677 -3.9375 4.75 C-3.20402344 3.85796875 -2.47054688 2.9659375 -1.71484375 2.046875 C-1.14894531 1.37140625 -0.58304687 0.6959375 0 0 Z " fill="#18BFDC" transform="translate(414,278)"/>
<path d="M0 0 C2.475 0.495 2.475 0.495 5 1 C5.33 2.32 5.66 3.64 6 5 C9.3 5 12.6 5 16 5 C14 9 14 9 11.67578125 10.0234375 C9 10 9 10 6.54296875 8.1640625 C5.76566406 7.32617188 4.98835937 6.48828125 4.1875 5.625 C3.39730469 4.79226563 2.60710937 3.95953125 1.79296875 3.1015625 C0 1 0 1 0 0 Z " fill="#3B4356" transform="translate(241,357)"/>
<path d="M0 0 C0.33 0 0.66 0 1 0 C1 7.59 1 15.18 1 23 C0.34 23.33 -0.32 23.66 -1 24 C-1 19.05 -1 14.1 -1 9 C-1.99 8.67 -2.98 8.34 -4 8 C-2.25 2.25 -2.25 2.25 0 0 Z " fill="#22293D" transform="translate(161,253)"/>
<path d="M0 0 C0.33 0.99 0.66 1.98 1 3 C-2.12929178 4.83069903 -4.37643146 5.23931181 -7.984375 5.1953125 C-8.91894531 5.18886719 -9.85351562 5.18242187 -10.81640625 5.17578125 C-11.78449219 5.15902344 -12.75257813 5.14226562 -13.75 5.125 C-14.73355469 5.11597656 -15.71710938 5.10695312 -16.73046875 5.09765625 C-19.15389407 5.07412785 -21.57682222 5.04125368 -24 5 C-24 4.01 -24 3.02 -24 2 C-22.700625 2.165 -21.40125 2.33 -20.0625 2.5 C-13.25009609 3.24979288 -6.74458639 3.3835049 0 2 C0 1.34 0 0.68 0 0 Z " fill="#586273" transform="translate(195,213)"/>
<path d="M0 0 C1.67542976 0.28604898 3.34385343 0.61781233 5 1 C5.33 2.65 5.66 4.3 6 6 C3.69 6.33 1.38 6.66 -1 7 C-1.04254356 5.00045254 -1.04080783 2.99958364 -1 1 C-0.67 0.67 -0.34 0.34 0 0 Z " fill="#0B1326" transform="translate(160,160)"/>
<path d="M0 0 C0.598125 0.763125 1.19625 1.52625 1.8125 2.3125 C3.83046835 4.90221468 3.83046835 4.90221468 5.6875 6.625 C7 8 7 8 8 11 C4.67465243 12.10844919 2.37817425 11.84454356 -1 11 C-1 10.34 -1 9.68 -1 9 C-0.34 9 0.32 9 1 9 C1.33 7.35 1.66 5.7 2 4 C1.34 4 0.68 4 0 4 C0 2.68 0 1.36 0 0 Z " fill="#1BD5E6" transform="translate(430,239)"/>
<path d="M0 0 C0.33 0.99 0.66 1.98 1 3 C-3.48713568 7.5896337 -7.98568224 11.98854579 -13 16 C-13.66 15.67 -14.32 15.34 -15 15 C-10.05 10.05 -5.1 5.1 0 0 Z " fill="#8E97A8" transform="translate(302,297)"/>
<path d="M0 0 C2.45391569 3.68087353 2.22802759 6.44355588 2.125 10.6875 C2.11597656 11.38939453 2.10695312 12.09128906 2.09765625 12.81445312 C2.07413704 14.54311525 2.03826713 16.27160145 2 18 C2.66 17.34 3.32 16.68 4 16 C3.38722388 18.96175123 2.74627478 20.38058783 1 23 C0.01 22.67 -0.98 22.34 -2 22 C-1.67257813 21.18273437 -1.34515625 20.36546875 -1.0078125 19.5234375 C0.16951093 15.40736876 0.22478162 11.86955666 0.125 7.625 C0.11146484 6.52091797 0.11146484 6.52091797 0.09765625 5.39453125 C0.07430144 3.5962112 0.03843836 1.79806089 0 0 Z " fill="#154864" transform="translate(219,246)"/>
<path d="M0 0 C2.31 0 4.62 0 7 0 C7.33 0.99 7.66 1.98 8 3 C7.67 3.66 7.34 4.32 7 5 C4.69 5 2.38 5 0 5 C0 3.35 0 1.7 0 0 Z " fill="#304865" transform="translate(287,211)"/>
<path d="M0 0 C1.70884005 1.62339805 3.37446717 3.29319053 5 5 C5 5.66 5 6.32 5 7 C1.37 7 -2.26 7 -6 7 C-6.33 6.01 -6.66 5.02 -7 4 C-4.61435923 4.57584432 -2.33317216 5.22227595 0 6 C0 4.02 0 2.04 0 0 Z " fill="#24C6E6" transform="translate(450,269)"/>
<path d="M0 0 C3.63 0 7.26 0 11 0 C6.41015625 6.25 6.41015625 6.25 5 8 C4.67 8 4.34 8 4 8 C4 5.69 4 3.38 4 1 C2.68 0.67 1.36 0.34 0 0 Z " fill="#2DD8E7" transform="translate(447,233)"/>
<path d="M0 0 C2.8290723 2.8290723 3.37611108 3.38144425 4 7 C3.34 7 2.68 7 2 7 C1.67 12.28 1.34 17.56 1 23 C0.67 23 0.34 23 0 23 C0 15.41 0 7.82 0 0 Z " fill="#3B3E4D" transform="translate(135,253)"/>
<path d="M0 0 C0.33 0.66 0.66 1.32 1 2 C0.67 2.99 0.34 3.98 0 5 C1.32 5.33 2.64 5.66 4 6 C4 5.34 4 4.68 4 4 C4.99 4.33 5.98 4.66 7 5 C5.35 6.65 3.7 8.3 2 10 C1.67 9.34 1.34 8.68 1 8 C0.34 8 -0.32 8 -1 8 C-1 7.34 -1 6.68 -1 6 C-1.66 6 -2.32 6 -3 6 C-1.125 1.125 -1.125 1.125 0 0 Z " fill="#1AC9E3" transform="translate(426,261)"/>
<path d="M0 0 C9.88340807 -0.92017937 9.88340807 -0.92017937 12.62109375 1.3359375 C13.6875 3 13.6875 3 15 6 C14.01 6 13.02 6 12 6 C12 5.01 12 4.02 12 3 C11.01 3 10.02 3 9 3 C9 2.34 9 1.68 9 1 C5.27385847 2.11854586 5.27385847 2.11854586 3 5 C2.01 3.35 1.02 1.7 0 0 Z " fill="#2ED5E5" transform="translate(415,233)"/>
<path d="M0 0 C1.65 0.33 3.3 0.66 5 1 C4.67 2.65 4.34 4.3 4 6 C2.35 5.67 0.7 5.34 -1 5 C-0.67 3.35 -0.34 1.7 0 0 Z " fill="#091224" transform="translate(347,311)"/>
<path d="M0 0 C2 3 2 3 2 7 C1.34 7 0.68 7 0 7 C0 7.66 0 8.32 0 9 C-1.32 8.67 -2.64 8.34 -4 8 C-3.50168276 4.31245243 -2.89932357 2.39509338 0 0 Z " fill="#09E1F8" transform="translate(430,258)"/>
<path d="M0 0 C0.66 0 1.32 0 2 0 C2.12375 0.639375 2.2475 1.27875 2.375 1.9375 C2.684375 2.9584375 2.684375 2.9584375 3 4 C3.66 4.33 4.32 4.66 5 5 C3.68 6.32 2.36 7.64 1 9 C0.01 8.67 -0.98 8.34 -2 8 C-1.125 1.125 -1.125 1.125 0 0 Z " fill="#414A5B" transform="translate(261,350)"/>
<path d="M0 0 C0.66 0 1.32 0 2 0 C2 0.66 2 1.32 2 2 C2.99 1.67 3.98 1.34 5 1 C5 1.99 5 2.98 5 4 C4.01 4 3.02 4 2 4 C1.67 5.32 1.34 6.64 1 8 C0.01 8 -0.98 8 -2 8 C-1.125 2.25 -1.125 2.25 0 0 Z " fill="#06DEF6" transform="translate(423,267)"/>
<path d="M0 0 C3.90285767 1.58667578 6.33520982 4.13350481 9.25 7.125 C10.14203125 8.03507812 11.0340625 8.94515625 11.953125 9.8828125 C12.62859375 10.58148438 13.3040625 11.28015625 14 12 C11 12 11 12 9.31640625 10.57421875 C8.73761719 9.95160156 8.15882813 9.32898438 7.5625 8.6875 C5.61011589 6.63584212 3.84228881 4.88272757 1.5625 3.1875 C1.046875 2.795625 0.53125 2.40375 0 2 C0 1.34 0 0.68 0 0 Z " fill="#919CA9" transform="translate(208,304)"/>
<path d="M0 0 C1.98 0.495 1.98 0.495 4 1 C2.68 3.31 1.36 5.62 0 8 C2.97 8 5.94 8 9 8 C9 8.33 9 8.66 9 9 C5.7 9 2.4 9 -1 9 C-1.125 2.25 -1.125 2.25 0 0 Z " fill="#11324A" transform="translate(405,284)"/>
<path d="M0 0 C0.33 0.66 0.66 1.32 1 2 C-1.31537955 5.72114571 -3.28579473 8.61229661 -7 11 C-6.75 8.625 -6.75 8.625 -6 6 C-3.9375 4.6875 -3.9375 4.6875 -2 4 C-2 3.01 -2 2.02 -2 1 C-1.34 0.67 -0.68 0.34 0 0 Z " fill="#18B4E1" transform="translate(218,262)"/>
<path d="M0 0 C1 2 1 2 0.4375 5.5 C-1 9 -1 9 -4.125 10.4375 C-5.548125 10.7159375 -5.548125 10.7159375 -7 11 C-5.22054913 6.95579349 -2.60470327 3.53921513 0 0 Z " fill="#18C5E3" transform="translate(422,267)"/>
<path d="M0 0 C0.99 1.32 1.98 2.64 3 4 C2.01 5.32 1.02 6.64 0 8 C-1.98 4.535 -1.98 4.535 -4 1 C-2.68 0.67 -1.36 0.34 0 0 Z " fill="#1BCDEF" transform="translate(442,265)"/>
<path d="M0 0 C2.5625 2.25 2.5625 2.25 5 5 C4.8125 7.3125 4.8125 7.3125 4 9 C2.35 8.01 0.7 7.02 -1 6 C-0.67 5.34 -0.34 4.68 0 4 C0.66 4.33 1.32 4.66 2 5 C2 4.34 2 3.68 2 3 C1.01 2.67 0.02 2.34 -1 2 C-0.67 1.34 -0.34 0.68 0 0 Z " fill="#14394F" transform="translate(425,249)"/>
<path d="M0 0 C1.32 0 2.64 0 4 0 C4 1.98 4 3.96 4 6 C2.35 5.67 0.7 5.34 -1 5 C-0.67 3.35 -0.34 1.7 0 0 Z " fill="#13ECFA" transform="translate(447,234)"/>
<path d="M0 0 C0.33 0 0.66 0 1 0 C1 1.98 1 3.96 1 6 C1.66 6.33 2.32 6.66 3 7 C2.01 9.31 1.02 11.62 0 14 C-1.53508028 11.56661348 -2.03088304 10.32875493 -1.7578125 7.421875 C-1.54898438 6.54015625 -1.34015625 5.6584375 -1.125 4.75 C-0.92132813 3.85796875 -0.71765625 2.9659375 -0.5078125 2.046875 C-0.34023437 1.37140625 -0.17265625 0.6959375 0 0 Z " fill="#414451" transform="translate(80,260)"/>
<path d="M0 0 C0.66 0.33 1.32 0.66 2 1 C2 3.97 2 6.94 2 10 C-0.50816459 7.49183541 -1.61410019 6.09162264 -3 3 C-2.01 3 -1.02 3 0 3 C0 2.01 0 1.02 0 0 Z " fill="#173347" transform="translate(450,260)"/>
<path d="M0 0 C-0.33 1.65 -0.66 3.3 -1 5 C-1.66 5 -2.32 5 -3 5 C-3 5.66 -3 6.32 -3 7 C-3.66 6.67 -4.32 6.34 -5 6 C-5.625 3.9375 -5.625 3.9375 -6 2 C-2.25 0 -2.25 0 0 0 Z " fill="#0EE9F9" transform="translate(432,243)"/>
<path d="M0 0 C-0.66 1.65 -1.32 3.3 -2 5 C-2.99 4.67 -3.98 4.34 -5 4 C-4.67 3.67 -4.34 3.34 -4 3 C-6.97 2.67 -9.94 2.34 -13 2 C-13 1.67 -13 1.34 -13 1 C-8.60563789 0.14256349 -4.47427924 -0.08948558 0 0 Z " fill="#1C4A5E" transform="translate(461,231)"/>
<path d="M0 0 C2.475 0.99 2.475 0.99 5 2 C4.71872579 3.48117801 4.42466268 4.95993249 4.125 6.4375 C3.96257812 7.26121094 3.80015625 8.08492188 3.6328125 8.93359375 C3.42398437 9.61550781 3.21515625 10.29742187 3 11 C2.01 11.495 2.01 11.495 1 12 C1.01160156 11.30132812 1.02320313 10.60265625 1.03515625 9.8828125 C1.04417969 8.97273438 1.05320312 8.06265625 1.0625 7.125 C1.07410156 6.22007812 1.08570313 5.31515625 1.09765625 4.3828125 C1.16249257 1.9831415 1.16249257 1.9831415 0 0 Z " fill="#305F83" transform="translate(256,347)"/>
<path d="M0 0 C3.63 0 7.26 0 11 0 C11.33 0.66 11.66 1.32 12 2 C10.7625 1.938125 9.525 1.87625 8.25 1.8125 C5.21788698 1.79637174 4.17751704 1.89348977 1.5 3.5 C1.005 3.995 0.51 4.49 0 5 C0 3.35 0 1.7 0 0 Z " fill="#152F4A" transform="translate(244,296)"/>
<path d="M0 0 C0.99 0.33 1.98 0.66 3 1 C0.03 3.64 -2.94 6.28 -6 9 C-6.66 8.67 -7.32 8.34 -8 8 C-5.36 5.36 -2.72 2.72 0 0 Z " fill="#7B8495" transform="translate(285,313)"/>
<path d="M0 0 C0.33 0 0.66 0 1 0 C1.90413673 3.83724172 2.10576898 7.37502274 2.0625 11.3125 C2.05347656 12.38113281 2.04445312 13.44976562 2.03515625 14.55078125 C2.02355469 15.35902344 2.01195312 16.16726563 2 17 C1.67 17 1.34 17 1 17 C0.93941406 16.39671875 0.87882813 15.7934375 0.81640625 15.171875 C0.69072266 13.97304688 0.69072266 13.97304688 0.5625 12.75 C0.48128906 11.96109375 0.40007812 11.1721875 0.31640625 10.359375 C0.05078294 8.01579491 0.05078294 8.01579491 -0.5625 5.84375 C-1.0950325 3.59950588 -0.69755567 2.17017319 0 0 Z " fill="#1CB8E3" transform="translate(218,245)"/>
<path d="M0 0 C0 3 0 3 -2.25 5.5625 C-4.55902983 7.60914008 -6.26579189 8.73221547 -9 10 C-8.06409496 8.8944811 -7.12620142 7.79064547 -6.1875 6.6875 C-5.66542969 6.07261719 -5.14335937 5.45773438 -4.60546875 4.82421875 C-3.12827531 3.14575321 -1.59960869 1.56117966 0 0 Z " fill="#778293" transform="translate(203,184)"/>
<path d="M0 0 C0.66 1.32 1.32 2.64 2 4 C-1.38018531 5.04005702 -4.4780279 5.08004482 -8 5 C-8 4.34 -8 3.68 -8 3 C-6.865625 2.690625 -5.73125 2.38125 -4.5625 2.0625 C-1.21224901 1.37075469 -1.21224901 1.37075469 0 0 Z " fill="#3F5770" transform="translate(256,342)"/>
<path d="M0 0 C0.66 0.33 1.32 0.66 2 1 C-0.64 3.64 -3.28 6.28 -6 9 C-6.66 8.67 -7.32 8.34 -8 8 C-5.33333333 5.33333333 -2.66666667 2.66666667 0 0 Z " fill="#31394C" transform="translate(285,336)"/>
<path d="M0 0 C0.66 0.33 1.32 0.66 2 1 C0.8141763 4.37503669 -0.27573689 6.64722731 -3 9 C-3.33 7.35 -3.66 5.7 -4 4 C-3.34 4 -2.68 4 -2 4 C-1.34 2.68 -0.68 1.36 0 0 Z " fill="#12394E" transform="translate(443,234)"/>
<path d="M0 0 C-1.0625 1.5625 -1.0625 1.5625 -3 3 C-6.6875 2.6875 -6.6875 2.6875 -10 2 C-10 1.67 -10 1.34 -10 1 C-6.59437148 0.22157062 -3.49234244 -0.09978121 0 0 Z " fill="#1A85B7" transform="translate(257,309)"/>
<path d="M0 0 C1.65 0 3.3 0 5 0 C5 1.65 5 3.3 5 5 C4.34 5 3.68 5 3 5 C3 4.34 3 3.68 3 3 C1.68 3.33 0.36 3.66 -1 4 C-0.67 2.68 -0.34 1.36 0 0 Z " fill="#0CEAF8" transform="translate(441,243)"/>
<path d="M0 0 C0 3 0 3 -1.53125 4.60546875 C-2.1809375 5.12753906 -2.830625 5.64960938 -3.5 6.1875 C-4.1496875 6.71730469 -4.799375 7.24710938 -5.46875 7.79296875 C-5.9740625 8.19128906 -6.479375 8.58960938 -7 9 C-6.19095897 4.20719998 -3.74015409 2.86479887 0 0 Z " fill="#E1E3E6" transform="translate(245,145)"/>
<path d="M0 0 C4 4.625 4 4.625 4 8 C2 6.8125 2 6.8125 0 5 C-0.25 2.3125 -0.25 2.3125 0 0 Z " fill="#153F5B" transform="translate(436,264)"/>
<path d="M0 0 C4.875 4.625 4.875 4.625 6 8 C5.34 8 4.68 8 4 8 C3 7 2 6 1 5 C0.34 5 -0.32 5 -1 5 C-0.67 3.35 -0.34 1.7 0 0 Z " fill="#183D55" transform="translate(415,234)"/>
<path d="M0 0 C0.99 0.33 1.98 0.66 3 1 C0.36 2.98 -2.28 4.96 -5 7 C-3.38262276 3.76524552 -2.52370777 2.29427979 0 0 Z " fill="#5E6677" transform="translate(258,338)"/>
<path d="M0 0 C0.33 1.32 0.66 2.64 1 4 C0.34 4 -0.32 4 -1 4 C-1.33 5.32 -1.66 6.64 -2 8 C-2.66 8 -3.32 8 -4 8 C-2.25 2.25 -2.25 2.25 0 0 Z " fill="#383D4D" transform="translate(161,253)"/>
</svg>
